<svg viewBox="0 0 12 8" fill="none" xmlns="http://www.w3.org/2000/svg">
<path d="M5.04535 7.39952L0.249351 1.91752C-0.316649 1.27252 0.143351 0.259522 1.00235 0.259522H10.5944C10.7866 0.259357 10.9748 0.314609 11.1365 0.418662C11.2981 0.522716 11.4263 0.671158 11.5058 0.846215C11.5853 1.02127 11.6126 1.21552 11.5845 1.4057C11.5564 1.59588 11.474 1.77393 11.3474 1.91852L6.55135 7.39852C6.45749 7.50593 6.34174 7.59202 6.21186 7.651C6.08198 7.70999 5.94099 7.7405 5.79835 7.7405C5.65571 7.7405 5.51472 7.70999 5.38484 7.651C5.25497 7.59202 5.13921 7.50593 5.04535 7.39852V7.39952Z" fill="currentColor"/>
</svg>
